<?xml version="1.0" encoding="utf-8"?>
<!-- Generator: Adobe Illustrator 23.0.1, SVG Export Plug-In . SVG Version: 6.00 Build 0)  -->
<svg version="1.1" xmlns="http://www.w3.org/2000/svg" xmlns:xlink="http://www.w3.org/1999/xlink" x="0px" y="0px"
	 viewBox="0 0 16 29.7" style="enable-background:new 0 0 16 29.7;" xml:space="preserve">
<style type="text/css">
	.st0{display:none;}
	.st1{display:inline;}
	.st2{clip-path:url(#SVGID_2_);}
	.st3{clip-path:url(#SVGID_4_);}
	.st4{clip-path:url(#SVGID_6_);}
	.st5{clip-path:url(#SVGID_8_);}
	.st6{fill:#FFFFFF;}
	.st7{clip-path:url(#SVGID_10_);}
	.st8{clip-path:url(#SVGID_12_);}
	.st9{fill:#E60004;}
</style>
<g id="Layer_2">
</g>
<g id="Layer_4" class="st0">
</g>
<g id="Layer_1">
	<path class="st6" d="M8,23.4c-1.7,0-3.2,1.4-3.2,3.2s1.4,3.2,3.2,3.2s3.2-1.4,3.2-3.2S9.7,23.4,8,23.4z M8,28.3
		c-1,0-1.7-0.8-1.7-1.7S7,24.8,8,24.8s1.7,0.8,1.7,1.7S8.9,28.3,8,28.3z M16,8c0,3.8-2.2,5.6-4.2,7.1c-1.7,1.3-3.1,2.4-3.1,4.6H7.3
		c0-2.9,1.8-4.3,3.6-5.7c1.9-1.5,3.6-2.9,3.6-6c0-3.6-2.9-6.6-6.6-6.6S1.4,4.4,1.4,8H0c0-4.4,3.6-8,8-8S16,3.6,16,8z"/>
</g>
<g id="Layer_3" class="st0">
</g>
</svg>
